<svg xmlns="http://www.w3.org/2000/svg" width="171.278" height="225.9" viewBox="0 0 171.278 225.9">
  <g id="lab-microscope-icon" transform="translate(-83.051 -29.5)" opacity="0.1">
    <g id="Group_24" data-name="Group 24" transform="translate(83.051 29.5)">
      <g id="Group_23" data-name="Group 23">
        <path id="Path_29" data-name="Path 29" d="M87.421,255.349c-1.994-.818-2.863-2.352-2.76-4.7a21.312,21.312,0,0,0,0-2.556v-1.278c.051-9.559,5.981-15.541,15.541-15.592h10.991c2.4,0,5.265,0,8.179-.051a4.124,4.124,0,0,0,3.221-1.534c3.732-6.237,7.361-12.32,11.144-18.812l3.374-5.777-6.237-3.732s-3.169,5.265-3.936,6.543c-1.534,2.556-2.607,2.914-3.425,2.914a7.107,7.107,0,0,1-3.221-1.176c-10.889-6.39-19.937-11.707-28.525-16.819-3.118-1.84-3.527-3.425-1.687-6.543.716-1.278,1.482-2.556,2.249-3.885l1.636-2.76s-2.454-1.431-3.221-1.891c-1.738-1.022-3.425-1.994-5.112-3.016-2.863-1.738-3.272-3.323-1.585-6.237s3.681-6.39,5.725-9.764c1.329-2.2,2.5-2.454,3.272-2.454a5.745,5.745,0,0,1,2.658.869c16.665,9.764,34.251,20.141,53.83,31.643,2.709,1.585,3.118,3.067,1.687,5.93-.153.256-.256.562-.409.869a5.3,5.3,0,0,0-.2.511l-.358.818,9,5.265.511-.818a7.487,7.487,0,0,1,.46-.665c.307-.409.511-.818.767-1.176l1.125-1.943q8.128-13.8,16.205-27.554c4.754-8.077,2.812-15.438-5.265-20.192-1.994-1.176-4.038-2.352-6.083-3.578l-4.192-2.454-2.045,3.476c-1.227,2.1-2.454,4.141-3.681,6.186-.153.2-.256.46-.409.665-.409.665-.767,1.329-1.176,1.891a3.456,3.456,0,0,1-2.812,1.687,4.187,4.187,0,0,1-1.943-.562c-1.022-.562-2.1-1.125-3.169-1.789-.511-.307-1.022-.613-1.585-.92l-.869-.511-7.872,13.342c-1.585,2.709-2.556,3.221-3.578,3.221a8.075,8.075,0,0,1-3.681-1.431l-2.045-1.176c-1.994-1.176-4.038-2.352-5.981-3.527-2.76-1.687-3.221-3.323-1.636-6.083,1.738-3.016,3.476-5.981,5.368-9.1.818-1.329,1.585-2.709,2.4-4.09l.511-.869-4.55-2.709c-3.169-1.891-3.527-3.374-1.687-6.492q11.809-20.014,23.566-40.078L163.9,64.262c1.636-2.76,2.607-3.323,3.681-3.323a8.081,8.081,0,0,1,3.63,1.329c.2.1.46.256.716.358l1.329.665,7.77-13.189-.869-.511a12.929,12.929,0,0,0-1.125-.665c-.767-.46-1.534-.92-2.3-1.431-2.3-1.482-2.812-3.169-1.482-5.47,1.994-3.578,4.09-7.106,6.186-10.48A3.511,3.511,0,0,1,184.4,29.5a4.167,4.167,0,0,1,2.147.665c10.224,5.93,20.346,11.86,30.059,17.688,2.147,1.278,2.5,3.016,1.227,5.316-1.994,3.578-4.038,7.055-6.032,10.326-1.176,1.943-2.3,2.147-3.016,2.147a5.189,5.189,0,0,1-2.454-.767c-.716-.409-1.431-.818-2.249-1.278-.409-.256-.818-.46-1.278-.716l-.869-.511-7.668,13.036.665.562c2.607,2.147,3.681,3.118,3.834,4.243.153,1.278-.818,3.374-2.556,7.157l-.358.716.613.511a1.378,1.378,0,0,1,.409.358c.358.307.716.562,1.125.869,1.022.716,1.994,1.38,3.016,2.1,2.4,1.687,4.959,3.476,7.515,5.061,7.873,4.908,12.422,11.911,13.394,20.908.818,7.106,1.074,14.467,1.278,21.573.051,1.074.051,2.147.1,3.221.716,19.937,1.431,40.18,2.1,59.76.307,8.435.562,16.921.869,25.356,0,.511.051.971.1,1.585,0,.307.051.613.051.971l.051.971h12.269c4.447.051,7.77,1.125,10.429,3.476a13.338,13.338,0,0,1,4.908,9.048c.2,2.4.256,4.805.256,7.668a4.024,4.024,0,0,1-2.658,3.885H87.421Zm13.24-17.176a14.046,14.046,0,0,0-2.045.1,7.584,7.584,0,0,0-5.419,2.863,8.056,8.056,0,0,0-1.329,6.339l.153.869h155.1l.1-.92a8.356,8.356,0,0,0-1.585-6.543,7.953,7.953,0,0,0-5.828-2.658c-.307,0-.665-.051-1.022-.051H100.662Zm29.19-7.055h89.46v-2.863l-.358-10.837c-.409-11.3-.767-22.6-1.176-33.842-.153-4.856-.358-9.713-.511-14.569-.511-15.438-1.074-31.337-1.738-47.031-.307-7.157-2.454-12.32-6.543-15.745-3.476-2.914-7.31-5.572-10.991-8.128-1.636-1.125-3.323-2.3-4.959-3.476l-.92-.665-.562.971c-.307.46-.511.92-.767,1.329-.511.869-.92,1.585-1.38,2.249-1.38,1.84-1.278,3.425.358,5.265,4.754,5.368,5.419,13.8,1.636,20.448a17.949,17.949,0,0,1-15.132,8.895,13.274,13.274,0,0,1-2.863-.307,6.885,6.885,0,0,0-1.687-.2c-2.5,0-3.527,1.687-4.141,3.118-.1.256-.256.511-.409.818-.1.153-.153.358-.256.511l-.46.869s3.016,1.738,4.038,2.4c2.3,1.329,4.447,2.607,6.646,3.936,10.735,6.441,13.751,17.994,7.566,28.73-5.265,9.1-10.684,18.25-15.9,27.145-1.534,2.556-3.067,5.163-4.55,7.719-1.38,2.352-2.556,2.658-3.374,2.658a6.749,6.749,0,0,1-3.016-1.022c-2.4-1.38-4.754-2.812-7.208-4.192l-4.09-2.4ZM97.134,187.973l24.9,14.671,2.863-4.754L99.946,183.219ZM91.2,170.03l49.433,29.036,3.221-5.521L94.425,164.457ZM127.4,159.7l4.6,2.658,7.055-11.962-4.6-2.658Zm1.891-23.055,21.982,12.933,12.371-21.01-.46-.562-.767-.92a12.773,12.773,0,0,1-1.329-1.687,18.212,18.212,0,0,1-.511-19.988,17.776,17.776,0,0,1,15.234-8.333,20.55,20.55,0,0,1,3.527.307,1.576,1.576,0,0,0,.511.051,3.362,3.362,0,0,0,2.709-1.227c2.1-3.323,4.038-6.646,6.083-10.173.613-1.022,1.227-2.1,1.84-3.118l.511-.869L169.009,69.169Zm46.468-32.666a11.151,11.151,0,0,0-11.093,10.94,11.081,11.081,0,0,0,10.94,11.144h.153A11.151,11.151,0,0,0,186.8,115.075a10.994,10.994,0,0,0-10.94-11.093Zm3.323-37.011,8.946,5.265L195.9,58.792l-8.946-5.214Zm3.527-24.026L207.2,57.412l3.118-5.265-24.64-14.467Z" transform="translate(-83.051 -29.5)" fill="#003d68"/>
      </g>
    </g>
  </g>
</svg>
